<svg xmlns="http://www.w3.org/2000/svg" viewBox="0 0 110.32 36.91"><defs><style>.cls-1{fill:#231f20;}</style></defs><title>Asset 1</title><g id="Layer_2" data-name="Layer 2"><g id="Layer_1-2" data-name="Layer 1"><path class="cls-1" d="M14.06,1.24H20.3V22.18a10.33,10.33,0,0,1-.77,4.07,9,9,0,0,1-2.13,3.07,9.23,9.23,0,0,1-3.22,1.92,11.94,11.94,0,0,1-4,.66,13.88,13.88,0,0,1-4.08-.56,8.69,8.69,0,0,1-3.21-1.71A7.81,7.81,0,0,1,.76,26.72,10.37,10.37,0,0,1,0,22.56H6.27a6.7,6.7,0,0,0,.27,2.05A3.26,3.26,0,0,0,7.32,26a3,3,0,0,0,1.23.73,5.7,5.7,0,0,0,1.61.22A3.55,3.55,0,0,0,13,25.67a5.15,5.15,0,0,0,1.06-3.49Z"/><path class="cls-1" d="M41.88,36.91H23v-5H41.88Z"/><path class="cls-1" d="M80.29,31.91a6.43,6.43,0,0,1-.6-2,7.85,7.85,0,0,1-2.3,1.73,7.38,7.38,0,0,1-3.38.7,8.78,8.78,0,0,1-3-.5,7.45,7.45,0,0,1-2.43-1.39A6.39,6.39,0,0,1,67,28.3a6.22,6.22,0,0,1-.58-2.71A7.23,7.23,0,0,1,67,22.46a6.1,6.1,0,0,1,2-2.33,9.46,9.46,0,0,1,3.25-1.46,18.4,18.4,0,0,1,4.52-.49h2.68V16.89a3.7,3.7,0,0,0-.8-2.49,3.15,3.15,0,0,0-2.53-.94,3.56,3.56,0,0,0-2.38.73,2.47,2.47,0,0,0-.86,2h-6a5.92,5.92,0,0,1,.67-2.76,7,7,0,0,1,1.92-2.29,9.76,9.76,0,0,1,3-1.54A13.76,13.76,0,0,1,80,9.51,8.19,8.19,0,0,1,82.9,11a6.69,6.69,0,0,1,1.88,2.47,8.28,8.28,0,0,1,.68,3.46v9.51c0,.64,0,1.21.06,1.72s.1,1,.17,1.37a7.38,7.38,0,0,0,.27,1.1,6.87,6.87,0,0,0,.39.92v.36Zm-5-4.18a5,5,0,0,0,1.43-.19,5.12,5.12,0,0,0,1.17-.48,4,4,0,0,0,.9-.7,3.8,3.8,0,0,0,.62-.81V21.69H77a7,7,0,0,0-2,.26,4.05,4.05,0,0,0-1.44.72,2.94,2.94,0,0,0-.83,1.1,3.55,3.55,0,0,0-.27,1.39A2.41,2.41,0,0,0,73.16,27,3.06,3.06,0,0,0,75.32,27.73Z"/><path class="cls-1" d="M110.32,20.88a18.56,18.56,0,0,1-.54,4.63,10.59,10.59,0,0,1-1.63,3.61,7.48,7.48,0,0,1-2.73,2.36,8.3,8.3,0,0,1-3.84.84,7.29,7.29,0,0,1-3.38-.73,7.71,7.71,0,0,1-2.46-2.07l-.27,2.39h-5.4V0h6V11.45a7,7,0,0,1,2.34-1.8A7.32,7.32,0,0,1,101.54,9a8.25,8.25,0,0,1,3.85.85,7.56,7.56,0,0,1,2.75,2.37,10.41,10.41,0,0,1,1.64,3.61,18.4,18.4,0,0,1,.54,4.59Zm-6-.44a15.54,15.54,0,0,0-.19-2.52,6.34,6.34,0,0,0-.67-2.09,3.74,3.74,0,0,0-1.32-1.41A3.9,3.9,0,0,0,100,13.9a4.5,4.5,0,0,0-2.47.61,4.05,4.05,0,0,0-1.48,1.73v8.87a4.11,4.11,0,0,0,1.48,1.75,4.57,4.57,0,0,0,2.51.62,3.9,3.9,0,0,0,2.09-.5,3.67,3.67,0,0,0,1.31-1.37,6.12,6.12,0,0,0,.67-2.09,16.72,16.72,0,0,0,.19-2.64Z"/><path class="cls-1" d="M64.09,26.9v5H54.76a11.56,11.56,0,0,1-4-.67,9,9,0,0,1-3.23-1.92,8.72,8.72,0,0,1-2.13-3.06,10.29,10.29,0,0,1-.77-4.07V12.44h6.24v9.74a5.18,5.18,0,0,0,1,3.49,3.58,3.58,0,0,0,2.85,1.23Z"/></g></g></svg>